# xmcd
#
# Track frame offsets: 
#        150
#        20270
#        35024
#        51973
#        68723
#        92723
#        109525
#        125618
#        140872
#        161672
#        179307
#        194847
#        207910
#        226798
#        249072
#        269952
#        286739
#        304301
#        316918
#        327951
#
# Disc length: 4785 seconds
#
# Revision: 1
# Processed by: cddbd v1.5.2PL0 Copyright (c) Steve Scherf et al.
# Submitted via: ExactAudioCopy v1.3
#
DISCID=2912af14
DTITLE=Various Artist - Akella presents- vol.56 - Country-Blues  CD2
DYEAR=2015
DGENRE=Blues
TTITLE0=Larry Howard - The River
TTITLE1=Dixie Tabernacle - Lies
TTITLE2=Jimmy Nail - Dragons
TTITLE3=Bo Walton and Mark Knopfler - Miss You Bad
TTITLE4=Todd Griffin - Strenght In You
TTITLE5=James Taylor - Bittersweet
TTITLE6=The Kentucky Headhunters - Farmer's Daughter
TTITLE7=Willie May - Where Did We Go Wrong
TTITLE8=Gurf Morlix - Music You Mighta Made
TTITLE9=Ray Bonneville - Good Times
TTITLE10=The Buddaheads - Jack Of All Trades
TTITLE11=JP Soars - The Road Has Got Me Down
TTITLE12=John Illsley - Toe The Line
TTITLE13=Paul Thorn - Buckskin Jones
TTITLE14=Loes Swinkels - Sending Love and Hope To You
TTITLE15=Malcolm Holcombe - Trail O' Money
TTITLE16=Delta Moon - Lowdown
TTITLE17=The Handsome Family - Far From Any Road
TTITLE18=Eric Clapton and Friends - Cajun Moon
TTITLE19=Johnny Sansone - Lightning Bug Rhodes
EXTD=
EXTT0=
EXTT1=
EXTT2=
EXTT3=
EXTT4=
EXTT5=
EXTT6=
EXTT7=
EXTT8=
EXTT9=
EXTT10=
EXTT11=
EXTT12=
EXTT13=
EXTT14=
EXTT15=
EXTT16=
EXTT17=
EXTT18=
EXTT19=
PLAYORDER=
